<svg width="145" height="56" fill="none" xmlns="http://www.w3.org/2000/svg"><path d="M144.934 3.371c0-1.948-.831-2.824-2.758-2.846-3.218-.022-6.414-.065-9.631.044-.985.044-2.058.416-2.934.898-1.948 1.116-3.809 2.386-5.691 3.611-12.412 8.1-24.845 16.2-37.257 24.276-.766.504-1.554.942-2.561 1.577V3.414c0-2.035-.81-2.867-2.802-2.867C74.033.525 66.787.503 59.52.57c-.964 0-2.015.35-2.846.832-3.94 2.298-7.837 4.684-11.733 7.049a16667.851 16667.851 0 0 0-26.268 15.782c-1.03.613-2.102 1.226-3.393 1.992V0c-.679.35-1.03.503-1.357.722-3.787 2.211-7.487 4.51-11.23 6.72C.81 8.56-.021 10.07 0 12.259c.066 6.13.088 12.259 0 18.388-.021 2.014 1.248 3.02 3 3.02 4.443-.043 8.909-.021 13.352 0 1.357 0 2.54-.35 3.7-1.05 4.925-2.999 9.894-5.932 14.82-8.931.678-.416 1.094-.372 1.663.197 2.758 2.824 5.582 5.56 8.318 8.384.941.963 2.014 1.379 3.305 1.379h13.244c.394 0 .788-.11 1.4-.197l-16.57-16.57c7.706-4.62 15.148-9.085 22.81-13.682V30.58c0 2.036 1.028 3.087 3.086 3.087 6.961 0 13.944.044 20.905-.044 1.095-.022 2.342-.35 3.262-.941 10.726-6.896 21.408-13.9 32.112-20.84.351-.218.745-.372 1.336-.678V34.41c.416-.153.678-.219.875-.35 4.072-2.452 8.143-4.882 12.193-7.377 1.51-.92 2.189-2.342 2.189-4.137-.066-6.392-.066-12.784-.066-19.176ZM91.96 48.924c-.13-2.167-1.838-3.327-3.874-2.561-.613.24-1.16.657-1.51.854-.942-.394-1.752-.985-2.562-1.007-.81-.022-1.62.547-2.451.875-.022-.13-.088-.416-.132-.656h-2.539v8.427h2.78c0-.678-.022-1.226 0-1.773.044-1.072.066-2.167.24-3.24.11-.7.636-1.27 1.38-1.028.306.087.525.832.547 1.291.066 1.576.022 3.174.022 4.728h2.846c0-.897-.022-1.729 0-2.56.044-.854.066-1.752.263-2.584.175-.7.81-1.138 1.51-.897.328.11.591.81.591 1.248.066 1.576.022 3.174.022 4.75h2.846v-5.013c.021-.285.043-.57.021-.854ZM47.524 49.318c1.116-1.247 1.16-2.736.59-4.18-.525-1.336-1.685-1.993-3.086-2.036-1.663-.066-3.35-.022-5.1-.022v11.71h2.802v-3.742c.985-.35 1.532 0 1.926.853.372.832.81 1.62 1.291 2.386.154.241.438.548.68.57.853.065 1.706.022 2.757.022-.941-1.686-1.773-3.218-2.714-4.904.284-.197.613-.394.854-.657Zm-2.19-1.576c-.481 1.117-1.576.745-2.583.767-.021-.329-.043-.548-.043-.767v-2.145c.941-.175 1.926-.35 2.539.438.306.372.306 1.226.088 1.707ZM124.117 47.983c.919-1.576 1.773-3.174 2.736-4.903-.788 0-1.423.065-2.014-.022-.832-.11-1.226.262-1.554.963-.438.963-1.029 1.839-1.445 2.802-.328.766-.766 1.05-1.663.722v-4.378h-2.824v11.667h2.845v-4.618c.942-.329 1.358.022 1.642.744.197.504.504.963.744 1.445 1.314 2.56 1.314 2.56 4.116 2.473.065 0 .109-.044.262-.131-.941-1.751-1.86-3.502-2.867-5.21-.328-.59-.307-1.007.022-1.554ZM31.39 46.297c-1.006-.13-2.057.154-3.173.285v-3.437h-2.758v11.843c.963-.35 2.013.372 2.78-.613 2.167 1.029 3.918.854 5.056-.526 1.423-1.773 1.532-4.662.088-6.37-.482-.547-1.292-1.072-1.992-1.182Zm-1.553 6.414c-1.03 0-1.686-.832-1.686-2.101 0-1.226.722-2.102 1.73-2.08 1.05.022 1.663.81 1.663 2.102 0 1.291-.657 2.101-1.707 2.08ZM66.874 46.166c-.897.044-1.795.482-2.714.766v-3.809h-2.758v11.69h2.736c.022-.263.044-.46.044-.679 0-1.248-.022-2.473.022-3.721.044-1.073.81-1.773 1.73-1.686 1.137.088.853.985.853 1.664.022 1.489 0 2.955 0 4.422h2.824c0-2.123.087-4.181-.022-6.26-.088-1.445-1.226-2.452-2.715-2.387ZM19.089 46.123c-2.737 0-4.86 1.97-4.838 4.53.022 2.54 2.08 4.444 4.794 4.444 2.78 0 4.86-1.948 4.837-4.509-.021-2.495-2.123-4.444-4.793-4.465Zm-.022 6.589c-1.182 0-1.948-.767-1.97-1.97-.022-1.336.766-2.211 1.97-2.211 1.16 0 1.97.853 1.97 2.1.022 1.27-.744 2.08-1.97 2.08ZM54.966 46.123c-2.736 0-4.86 1.992-4.815 4.53.021 2.54 2.08 4.423 4.815 4.444 2.737 0 4.794-1.882 4.816-4.421.044-2.518-2.08-4.532-4.816-4.553Zm-.065 6.589c-1.16-.022-1.905-.81-1.905-2.036 0-1.314.81-2.167 2.036-2.145 1.138.021 1.926.897 1.905 2.167 0 1.27-.789 2.035-2.036 2.014ZM109.67 46.429c-1.336-.591-2.627-.394-3.7.678-.066.066-.175.088-.306.132-.066-.307-.11-.591-.175-.81h-2.518v8.406h2.758c0-.657-.022-1.27 0-1.883.044-.985.022-1.948.154-2.911.131-.92.766-1.401 1.729-1.27.941.153.722.941.744 1.554.022 1.51 0 3.021 0 4.51h2.846v-5.407c.044-1.292-.263-2.452-1.532-3ZM97.98 46.188c-1.554-.263-2.999.153-4.378 1.029.307.678.613 1.291.92 1.97 2.604-1.138 3.327-1.05 3.458.263-1.094.262-2.189.46-3.261.788-1.073.328-1.664 1.116-1.664 2.276 0 1.095.766 1.992 1.882 2.386 1.27.46 2.32-.022 3.284-.81.219.876.897 1.007 2.671.613 0-1.685.065-3.393-.022-5.1-.066-1.883-1.095-3.087-2.89-3.415Zm-1.335 6.698c-.263 0-.744-.503-.7-.678.284-1.05 1.203-.876 2.145-1.007-.066 1.116-.482 1.707-1.445 1.685ZM140.753 49.603c-.175-1.905-1.16-3.109-2.955-3.393-1.554-.263-2.977.153-4.356 1.029.197.394.35.722.504 1.028.153.307.306.613.437.92 2.54-1.16 3.131-1.095 3.481.197-1.292.35-2.539.569-3.678 1.05-1.247.526-1.619 1.927-.985 3.13.898 1.752 2.934 1.993 4.882.548.066.263.131.503.175.657h2.517v-4.553c-.022-.197 0-.416-.022-.613Zm-4.181 3.283c-.284-.044-.809-.569-.766-.7.351-.963 1.226-.876 2.036-.92 0 1.095-.46 1.73-1.27 1.62ZM74.36 47.917a67.1 67.1 0 0 0-.13-1.51h-2.562v8.428h2.78v-2.627c0-2.561.35-2.977 2.802-3.35v-2.67c-1.4-.175-2.101.766-2.89 1.73ZM128.604 54.79h2.715v-8.405h-2.715v8.406ZM128.604 43.167v2.058h2.671v-2.058h-2.671ZM11.449 48.64c1.16-.81 1.532-1.97 1.226-3.262-.329-1.4-1.467-2.101-2.802-2.189-1.795-.131-3.59-.022-5.407-.022v11.755h.985c1.27 0 2.54.044 3.83-.022 1.905-.065 3.503-1.116 3.853-2.451.416-1.62-.043-2.65-1.685-3.81Zm-4.16-3.35s2.453 0 2.518.745c.022.131.022.263.022.372v.263c.044 1.576-2.233 1.291-2.517 1.27H7.29v-2.65Zm2.956 6.064v.044c0 .022 0 .066-.022.087v.044a3.55 3.55 0 0 1-.066.241 1.414 1.414 0 0 1-.24.35c-.154.154-.307.263-.504.307-.875.372-2.101.197-2.101.197V49.69c.24 0 2.824.044 2.911.81.022.175.022.307.022.438.022.132.022.263 0 .416Z" fill="#EEE"/></svg>